# xmcd CD database file
#
# Track frame offsets:
#	182
#	40295
#	65282
#	79647
#	94417
#	113837
#	136057
#	157840
#	174880
#	187172
#	198402
#	230232
#	254355
#	270955
#	283475
#
# Disc length: 4052 seconds
#
# Revision: 1
# Processed by: cddbd v1.5.2PL0 Copyright (c) Steve Scherf et al.
# Submitted via: CDex 1.51
#
DISCID=d10fd20f
DTITLE=William Christopher Handy - Vol. 223 - Father Of The Blues
DYEAR=1997
DGENRE=Blues
TTITLE0=St. Louis Blues
TTITLE1=Beale Street Blues
TTITLE2=Memphis Blues
TTITLE3=Aunt Hagar's Blues
TTITLE4=Yellow Dog Blues
TTITLE5=Oh, Didn't He Ramble
TTITLE6=Chantez-Les Bas
TTITLE7=Friendless Blues
TTITLE8=Joe Turner's Blues
TTITLE9=Long Gone
TTITLE10=Loveless Love
TTITLE11=Hesitating Blues
TTITLE12=Careless Love
TTITLE13=Boogie Woogie On St. Louis Blues
TTITLE14=Atlanta Blues
EXTD=YEAR: 1997
EXTT0=
EXTT1=
EXTT2=
EXTT3=
EXTT4=
EXTT5=
EXTT6=
EXTT7=
EXTT8=
EXTT9=
EXTT10=
EXTT11=
EXTT12=
EXTT13=
EXTT14=
PLAYORDER=
